<svg width="200" height="130" viewBox="0 0 200 130" xmlns="http://www.w3.org/2000/svg">
<rect width="200" height="130" rx="12" fill="#FFFFFF"/>
<g transform="translate(20 20)">
<g clip-path="url(#clip0_787_881)">
<path d="M159.149 86.006H0.0507812V90H159.149V86.006Z" fill="#D30000"/>
<path d="M8.09291 53.381H7.08691V61.663H8.09291V53.381Z" fill="#021E4B"/>
<path d="M16.5877 59.876L11.4927 53.395L11.4797 53.381H10.5537V61.662H11.5367V55.015L16.7587 61.647L16.7717 61.662H17.5697V53.381H16.5877V59.876Z" fill="#021E4B"/>
<path d="M19.2271 54.317H21.9791V61.662H22.9971V54.317H25.7501V53.381H19.2271V54.317Z" fill="#021E4B"/>
<path d="M28.4127 57.949H32.8877V57.024H28.4127V54.305H33.4147V53.381H27.4067V61.662H33.4737V60.738H28.4127V57.949Z" fill="#021E4B"/>
<path d="M38.7899 58.112H41.2849V60.091C40.6609 60.592 39.7939 60.89 38.9589 60.89C37.0429 60.89 35.7549 59.536 35.7549 57.521C35.7549 55.645 37.1059 54.176 38.8309 54.176C40.0639 54.176 40.7459 54.622 41.2989 55.103L41.3299 55.13L41.9799 54.365L41.9489 54.338C41.0229 53.557 40.1289 53.24 38.8649 53.24C37.6949 53.24 36.6259 53.698 35.8569 54.53C35.1189 55.328 34.7129 56.39 34.7129 57.522C34.7129 60.043 36.4439 61.803 38.9239 61.803C40.5809 61.803 41.7149 61.011 42.2439 60.54L42.2569 60.527V57.2H38.7899V58.112Z" fill="#021E4B"/>
<path d="M51.0539 55.882C51.0539 55.221 50.8249 54.628 50.4089 54.212C49.8719 53.676 49.0339 53.381 48.0489 53.381H44.4829V61.663H45.4889V58.477H47.7709L50.1369 61.648L50.1499 61.664H51.3889L48.8599 58.301C50.2569 58.026 51.0549 57.148 51.0549 55.884L51.0539 55.882ZM45.4899 54.317H47.9789C49.2669 54.317 50.0359 54.906 50.0359 55.893C50.0359 56.907 49.2239 57.563 47.9679 57.563H45.4889V54.317H45.4899Z" fill="#021E4B"/>
<path d="M57.2989 53.322H56.3799L52.6319 61.605L52.6069 61.662H53.6449L54.6169 59.494H59.0289L59.9769 61.638L59.9879 61.662H61.0729L57.3109 53.346L57.2989 53.322ZM58.6289 58.582H55.0169L56.8279 54.541L58.6289 58.582Z" fill="#021E4B"/>
<path d="M60.9678 54.317H63.7188V61.662H64.7378V54.317H67.4908V53.381H60.9678V54.317Z" fill="#021E4B"/>
<path d="M70.195 53.381H69.187V61.663H70.195V53.381Z" fill="#021E4B"/>
<path d="M76.4699 53.24C74.0959 53.24 72.2349 55.12 72.2349 57.521C72.2349 59.962 74.0459 61.802 76.4469 61.802C78.8209 61.802 80.6819 59.922 80.6819 57.521C80.6819 55.08 78.8709 53.24 76.4699 53.24ZM76.4699 60.867C74.6799 60.867 73.2779 59.397 73.2779 57.522C73.2779 55.615 74.6409 54.177 76.4479 54.177C78.2379 54.177 79.6399 55.647 79.6399 57.522C79.6399 59.429 78.2769 60.867 76.4699 60.867Z" fill="#021E4B"/>
<path d="M88.7479 59.876L83.6529 53.395L83.6409 53.381H82.7139V61.662H83.6979V55.015L88.9199 61.647L88.9319 61.662H89.7299V53.381H88.7479V59.876Z" fill="#021E4B"/>
<path d="M98.7838 53.381H95.6738V61.663H96.6798V58.769H98.6308C99.5298 58.769 100.343 58.525 100.921 58.083C101.557 57.596 101.893 56.892 101.893 56.046C101.893 54.403 100.702 53.381 98.7838 53.381ZM96.6798 54.317H98.7128C100.086 54.317 100.874 54.951 100.874 56.057C100.874 57.142 100.007 57.844 98.6648 57.844H96.6798V54.317Z" fill="#021E4B"/>
<path d="M106.809 53.322H105.89L102.142 61.605L102.117 61.662H103.155L104.127 59.494H108.539L109.487 61.638L109.498 61.662H110.583L106.821 53.346L106.809 53.322ZM108.138 58.582H104.526L106.337 54.541L108.138 58.582Z" fill="#021E4B"/>
<path d="M118.736 55.882C118.736 55.221 118.507 54.628 118.091 54.212C117.554 53.676 116.716 53.381 115.731 53.381H112.165V61.663H113.171V58.477H115.453L117.819 61.648L117.832 61.664H119.071L116.542 58.301C117.939 58.026 118.737 57.148 118.737 55.884L118.736 55.882ZM113.171 54.317H115.66C116.948 54.317 117.717 54.906 117.717 55.893C117.717 56.907 116.905 57.563 115.649 57.563H113.17L113.171 54.317Z" fill="#021E4B"/>
<path d="M119.98 54.317H122.733V61.662H123.751V54.317H126.505V53.381H119.98V54.317Z" fill="#021E4B"/>
<path d="M134.194 59.876L129.099 53.395L129.087 53.381H128.16V61.662H129.144V55.015L134.366 61.647L134.379 61.662H135.176V53.381H134.194V59.876Z" fill="#021E4B"/>
<path d="M138.625 57.949H143.1V57.024H138.625V54.305H143.628V53.381H137.619V61.662H143.686V60.738H138.625V57.949Z" fill="#021E4B"/>
<path d="M149.848 58.299C151.243 58.024 152.042 57.146 152.042 55.882C152.042 55.221 151.813 54.628 151.398 54.212C150.862 53.676 150.024 53.381 149.038 53.381H145.471V61.663H146.477V58.477H148.76L151.126 61.648L151.139 61.664H152.378L149.849 58.301L149.848 58.299ZM146.477 54.317H148.968C150.255 54.317 151.024 54.906 151.024 55.893C151.024 56.907 150.212 57.563 148.956 57.563H146.477V54.317Z" fill="#021E4B"/>
<path d="M159.11 0H0.012207V41.71H159.11V0Z" fill="#D40000"/>
<path d="M6.34912 35.346V31.74L22.1791 10.262H6.34912V6.31104H27.5891V9.91704L11.7591 31.395H27.5891V35.346H6.34912Z" fill="white"/>
<path d="M30.3732 35.346L41.4042 6.31104H45.9652L56.9962 35.346H52.0902L49.5182 28.558H37.5332L34.9612 35.346H30.3472H30.3742H30.3732ZM39.0172 24.581H48.0062L43.5252 12.065L39.0172 24.581Z" fill="white"/>
<path d="M60.9204 35.346V6.33704H72.0304C75.3714 6.33704 77.8114 7.05304 79.3754 8.48504C80.9394 9.89004 81.7354 11.773 81.7354 14.08C81.7354 16.387 81.3374 16.864 80.5424 17.925C79.7474 18.986 78.6864 19.728 77.3874 20.205C79.1114 20.603 80.4634 21.372 81.4444 22.565C82.4784 23.732 82.9824 25.243 82.9824 27.126C82.9824 29.009 82.6374 30.149 81.9484 31.395C81.2594 32.615 80.1454 33.569 78.6334 34.285C77.1484 34.974 75.1864 35.319 72.7994 35.319H60.9204V35.346ZM65.4814 31.422H72.4554C74.7624 31.422 76.3004 31.024 77.1484 30.255C77.9964 29.486 78.4214 28.372 78.4214 26.887C78.4214 25.402 77.9974 24.288 77.1484 23.493C76.2994 22.671 74.7084 22.247 72.4284 22.247H65.5074V31.422H65.4814ZM65.4814 18.614H71.6594C73.7544 18.614 75.1864 18.216 75.9814 17.447C76.7764 16.678 77.1744 15.644 77.1744 14.371C77.1744 13.098 76.7764 12.064 75.9814 11.348C75.2124 10.632 73.7804 10.261 71.6594 10.261H65.4814V18.587V18.614Z" fill="white"/>
<path d="M88.5503 35.346V6.33704H99.6603C103.001 6.33704 105.441 7.05304 107.005 8.48504C108.569 9.89004 109.365 11.773 109.365 14.08C109.365 16.387 108.967 16.864 108.172 17.925C107.377 18.986 106.316 19.728 105.017 20.205C106.741 20.603 108.093 21.372 109.074 22.565C110.108 23.732 110.612 25.243 110.612 27.126C110.612 29.009 110.267 30.149 109.578 31.395C108.889 32.615 107.775 33.569 106.263 34.285C104.778 34.974 102.816 35.319 100.429 35.319H88.5503V35.346ZM93.1113 31.422H100.085C102.392 31.422 103.93 31.024 104.778 30.255C105.626 29.486 106.051 28.372 106.051 26.887C106.051 25.402 105.627 24.288 104.778 23.493C103.929 22.671 102.338 22.247 100.058 22.247H93.1373V31.422H93.1113ZM93.1113 18.614H99.2893C101.384 18.614 102.816 18.216 103.611 17.447C104.406 16.678 104.804 15.644 104.804 14.371C104.804 13.098 104.406 12.064 103.611 11.348C102.842 10.632 101.41 10.261 99.2893 10.261H93.1113V18.587V18.614Z" fill="white"/>
<path d="M117.134 35.346V6.33704H121.695V35.372H117.134V35.346Z" fill="white"/>
<path d="M127.131 35.346L137.207 20.338L127.555 6.31104H132.646L139.991 16.891L147.416 6.31104H152.348L142.723 20.232L152.746 35.32H147.575L139.912 23.573L132.169 35.32H127.131V35.346Z" fill="white"/>
</g>
<defs>
<clipPath id="clip0_787_881">
<rect width="159.11" height="90" fill="white"/>
</clipPath>
</defs>
</g>
</svg>
